<?xml version="1.0" encoding="utf-8"?>
<!-- Generator: Adobe Illustrator 22.1.0, SVG Export Plug-In . SVG Version: 6.00 Build 0)  -->
<svg version="1.1" id="Layer_1" xmlns="http://www.w3.org/2000/svg" xmlns:xlink="http://www.w3.org/1999/xlink" x="0px" y="0px"
	 viewBox="0 0 256 256" style="enable-background:new 0 0 256 256;" xml:space="preserve">
<style type="text/css">
	.st0{fill:#231F20;}
	.st1{fill:#FFEFE4;}
	.st2{fill:#69EBFC;}
	.st3{fill:#5FD4E3;}
	.st4{fill:#A1F1FC;}
	.st5{fill:#D476E2;}
	.st6{fill:#B665C2;}
	.st7{fill:#EA82FA;}
	.st8{fill:#FFF7F2;}
	.st9{fill:#FF8354;}
	.st10{fill:#FFA172;}
	.st11{fill:#6770E6;}
	.st12{fill:#5861C7;}
	.st13{fill:#E0734A;}
	.st14{fill:#EDD4C2;}
	.st15{fill:#CC6944;}
	.st16{fill:#858EFF;}
	.st17{fill:#C76642;}
	.st18{fill:#FFFFFF;}
	.st19{fill:#FFDEC7;}
	.st20{fill:#4E56B0;}
	.st21{fill:#94529E;}
	.st22{fill:#41B6C5;}
	.st23{fill:#9847A4;}
	.st24{fill:#C2552C;}
	.st25{fill:#CFB6A4;}
</style>
<g>
	<path class="st2" d="M193,256H63c-8.837,0-16-7.163-16-16V16c0-8.837,7.163-16,16-16h130c8.837,0,16,7.163,16,16v224
		C209,248.837,201.837,256,193,256z"/>
	<path class="st2" d="M193,256H63c-8.837,0-16-7.163-16-16V16c0-8.837,7.163-16,16-16h130c8.837,0,16,7.163,16,16v224
		C209,248.837,201.837,256,193,256z"/>
	<path class="st3" d="M193,250H63c-8.837,0-16-7.163-16-16v6c0,8.837,7.163,16,16,16h130c8.837,0,16-7.163,16-16v-6
		C209,242.837,201.837,250,193,250z"/>
	<path class="st4" d="M193,0H63c-8.837,0-16,7.163-16,16v6c0-8.837,7.163-16,16-16h130c8.837,0,16,7.163,16,16v-6
		C209,7.163,201.837,0,193,0z"/>
	<path class="st1" d="M57,238V30c0-4.418,3.582-8,8-8h126c4.418,0,8,3.582,8,8v208c0,4.418-3.582,8-8,8H65
		C60.582,246,57,242.418,57,238z"/>
	<path class="st3" d="M156,15h-56c-2.209,0-4-1.791-4-4v0c0-2.209,1.791-4,4-4h56c2.209,0,4,1.791,4,4v0
		C160,13.209,158.209,15,156,15z"/>
	<circle class="st3" cx="170" cy="11" r="4"/>
	<path class="st5" d="M28,117.835v-65.67C28,47.103,32.103,43,37.165,43h181.67c5.062,0,9.165,4.103,9.165,9.165v65.67
		c0,5.062-4.103,9.165-9.165,9.165H37.165C32.103,127,28,122.897,28,117.835z"/>
	<circle class="st4" cx="75" cy="85" r="27"/>
	<circle class="st11" cx="75" cy="81" r="12"/>
	<path class="st11" d="M75,112c6.867,0,13.13-2.568,17.895-6.79C88.904,99.636,82.379,96,75,96s-13.904,3.636-17.895,9.21
		C61.87,109.432,68.133,112,75,112z"/>
	<path class="st1" d="M178,81h-62c-2.209,0-4-1.791-4-4v0c0-2.209,1.791-4,4-4h62c2.209,0,4,1.791,4,4v0
		C182,79.209,180.209,81,178,81z"/>
	<path class="st1" d="M198,97h-82c-2.209,0-4-1.791-4-4v0c0-2.209,1.791-4,4-4h82c2.209,0,4,1.791,4,4v0
		C202,95.209,200.209,97,198,97z"/>
	<path class="st5" d="M28,215.835v-65.67c0-5.062,4.103-9.165,9.165-9.165h181.67c5.062,0,9.165,4.103,9.165,9.165v65.67
		c0,5.062-4.103,9.165-9.165,9.165H37.165C32.103,225,28,220.897,28,215.835z"/>
	<circle class="st4" cx="75" cy="183" r="27"/>
	<circle class="st11" cx="75" cy="179" r="12"/>
	<path class="st11" d="M75,210c6.867,0,13.13-2.568,17.895-6.79C88.904,197.636,82.379,194,75,194s-13.904,3.636-17.895,9.21
		C61.87,207.432,68.133,210,75,210z"/>
	<path class="st1" d="M178,179h-62c-2.209,0-4-1.791-4-4l0,0c0-2.209,1.791-4,4-4h62c2.209,0,4,1.791,4,4l0,0
		C182,177.209,180.209,179,178,179z"/>
	<path class="st1" d="M198,195h-82c-2.209,0-4-1.791-4-4l0,0c0-2.209,1.791-4,4-4h82c2.209,0,4,1.791,4,4l0,0
		C202,193.209,200.209,195,198,195z"/>
</g>
</svg>
